<?xml version="1.0" encoding="UTF-8"?>
<svg width="25px" height="24px" viewBox="0 0 25 24" version="1.1" xmlns="http://www.w3.org/2000/svg" xmlns:xlink="http://www.w3.org/1999/xlink">
    <title>编组</title>
    <defs>
        <rect id="path-1" x="0" y="0" width="24" height="24"></rect>
        <rect id="path-3" x="0" y="0" width="18" height="18"></rect>
    </defs>
    <g id="页面-1" stroke="none" stroke-width="1" fill="none" fill-rule="evenodd">
        <g id="资产-平台资产" transform="translate(-238.000000, -140.000000)">
            <g id="Clipped" transform="translate(238.860000, 140.000000)">
                <mask id="mask-2" fill="white">
                    <use xlink:href="#path-1"></use>
                </mask>
                <g id="path_0"></g>
                <g id="编组" mask="url(#mask-2)">
                    <g transform="translate(3.000000, 3.000000)" id="Clipped">
                        <mask id="mask-4" fill="white">
                            <use xlink:href="#path-3"></use>
                        </mask>
                        <g id="path_1"></g>
                        <g id="编组" mask="url(#mask-4)" fill="#9493AC">
                            <g transform="translate(0.002500, 3.182130)" id="Vector">
                                <path d="M8.99602,3.04834 C7.46602,3.04834 6.22602,4.28834 6.22602,5.81834 C6.22602,7.34837 7.46602,8.58837 8.99602,8.58837 C10.526,8.58837 11.766,7.34837 11.766,5.81834 C11.766,4.28834 10.526,3.04834 8.99602,3.04834 Z"></path>
                                <path d="M8.9975,-8.8817842e-16 C12.3675,-8.8817842e-16 15.5875,2.48 17.7175,5.05 C18.0875,5.5 18.0875,6.14 17.7175,6.58 C17.1875,7.22997 16.0675,8.47997 14.5675,9.56997 C10.7875,12.31997 7.2075,12.31997 3.4275,9.56997 C1.9275,8.47997 0.8075,7.22997 0.2775,6.58 C-0.0925,6.14 -0.0925,5.49 0.2775,5.05 C2.3975,2.48 5.6275,-8.8817842e-16 8.9975,-8.8817842e-16 Z M5.1175,5.82 C5.1175,7.95997 6.8575,9.69997 8.9975,9.69997 C11.1375,9.69997 12.8775,7.95997 12.8775,5.82 C12.8775,3.68 11.1375,1.94 8.9975,1.94 C6.8575,1.94 5.1175,3.68 5.1175,5.82 Z"></path>
                            </g>
                        </g>
                    </g>
                </g>
            </g>
        </g>
    </g>
</svg>